<?xml version="1.0" standalone="no"?><!DOCTYPE svg PUBLIC "-//W3C//DTD SVG 1.1//EN" "http://www.w3.org/Graphics/SVG/1.1/DTD/svg11.dtd"><svg t="1598846571953" class="icon" viewBox="0 0 1024 1024" version="1.1" xmlns="http://www.w3.org/2000/svg" p-id="4388" xmlns:xlink="http://www.w3.org/1999/xlink" width="200" height="200"><defs><style type="text/css"></style></defs><path d="M511.7 97.3c93 0 180.3 36.2 246.1 101.9 135.7 135.7 135.7 356.5 0 492.2L532.2 916.9c-7.4 7.4-16 8.5-20.5 8.5s-13.1-1.1-20.5-8.5L265.6 691.4c-135.7-135.7-135.7-356.5 0-492.2 65.7-65.7 153.1-101.9 246.1-101.9m0-87c-111.3 0-222.7 42.5-307.6 127.4-169.9 169.9-169.9 445.3 0 615.2l225.6 225.6c22.6 22.6 52.3 34 82 34s59.4-11.3 82-34l225.6-225.6c169.9-169.9 169.9-445.3 0-615.2-85-85-196.3-127.4-307.6-127.4z" fill="#2081F6" p-id="4389"></path><path d="M511.7 578.9c-87.9 0-159.5-71.6-159.5-159.5s71.6-159.5 159.5-159.5 159.5 71.6 159.5 159.5-71.6 159.5-159.5 159.5z m0-232c-40 0-72.5 32.5-72.5 72.5s32.5 72.5 72.5 72.5 72.5-32.5 72.5-72.5-32.5-72.5-72.5-72.5z" fill="#4C4F54" p-id="4390"></path></svg>